<svg width="20" height="20" viewBox="0 0 20 20" fill="none" xmlns="http://www.w3.org/2000/svg">
<path d="M19.4344 12.1507C19.2236 11.4633 18.5802 10.3436 18.1476 9.29036C18.0256 8.99103 17.6041 8.99102 17.4821 9.27927C17.0273 10.3325 16.395 11.4633 16.2397 12.1507C15.9624 13.1928 16.7943 14.0243 17.837 14.0243C18.8797 14.0243 19.7117 13.1928 19.4344 12.1507Z" fill="black"></path>
<path d="M15.308 16.3965C15.1416 15.8755 14.6535 15.0107 14.3207 14.2014C14.232 13.9686 13.9103 13.9686 13.8105 14.1903C13.4666 14.9996 12.9785 15.8644 12.8565 16.3854C12.5903 17.1282 13.2336 17.8267 14.0878 17.8267C14.9419 17.8267 15.5298 17.1393 15.308 16.3965Z" fill="black"></path>
<path d="M12.2573 10.5324C12.2573 11.6078 11.381 12.4836 10.305 12.4836H1.9523C1.59734 12.4836 1.30893 12.7719 1.30893 13.1267C1.30893 13.4814 1.59734 13.7697 1.9523 13.7697H7.78702C8.86301 13.7697 9.73932 14.6455 9.73932 15.7209C9.73932 16.7963 8.86301 17.6721 7.78702 17.6721H2.01886C1.63062 17.6721 1.30893 17.9936 1.30893 18.3816V19.3462C1.30893 19.712 1.00943 20.0003 0.654467 20.0003C0.288411 20.0003 0 19.7009 0 19.3462V18.3816C0 17.2619 0.909594 16.3528 2.02995 16.3528H7.79811C8.15308 16.3528 8.44148 16.0646 8.44148 15.7098C8.44148 15.355 8.15308 15.0668 7.79811 15.0668H1.9634C0.887411 15.0668 0.0110899 14.191 0.0110899 13.1156C0.0110899 12.0402 0.887411 11.1643 1.9634 11.1643H10.3161C10.6711 11.1643 10.9595 10.8761 10.9595 10.5213C10.9595 10.1666 10.6711 9.87832 10.3161 9.87832H2.07432C0.931782 9.87832 0.0110899 8.95814 0.0110899 7.81624V4.96701C0.0110899 3.83619 0.931778 2.91602 2.06323 2.91602H2.78425V4.2353H2.05214C1.6528 4.2353 1.32002 4.5679 1.32002 4.96701V7.82732C1.32002 8.23752 1.6528 8.5812 2.07432 8.5812H10.3161C11.381 8.5812 12.2573 9.45704 12.2573 10.5324Z" fill="black"></path>
<path d="M13.7105 0C13.4776 0.421286 13.4332 0.809311 13.3888 1.14191C13.3334 1.57428 13.289 1.85144 12.9118 2.22838C12.5347 2.60532 12.2574 2.63858 11.8248 2.7051C11.3256 2.77161 10.7044 2.86031 10.0389 3.5255C9.3733 4.19069 9.28456 4.81153 9.218 5.31042C9.16254 5.74279 9.11817 6.01995 8.74102 6.39689C8.67446 6.46341 8.59682 6.52993 8.53026 6.57428H4.93625C4.4038 6.57428 3.97119 6.17516 3.97119 5.67627V0.898002C3.97119 0.39911 4.4038 0 4.93625 0H13.7105Z" fill="black"></path>
<path d="M20 3.28159C20 5.08869 18.4248 6.56319 16.4836 6.56319H10.1165C10.3272 6.15299 10.3827 5.78714 10.427 5.46563C10.4825 5.03326 10.5269 4.7561 10.904 4.37916C11.2812 4.00222 11.5585 3.96895 11.9911 3.90243C12.4903 3.83591 13.1115 3.74723 13.777 3.08204C14.4426 2.41685 14.5313 1.796 14.5979 1.29711C14.6533 0.864739 14.6977 0.587579 15.0749 0.210639C15.1636 0.121947 15.2523 0.0554324 15.33 0H16.4947C18.4248 0 20 1.4745 20 3.28159Z" fill="black"></path>
</svg>
