<svg width="20" height="20" viewBox="0 0 20 20" fill="none" xmlns="http://www.w3.org/2000/svg">
<path d="M0 9.75745V12.8836C0 13.205 0.266074 13.4711 0.587582 13.4711H0.864744C1.04213 13.4711 1.18625 13.327 1.18625 13.1496V9.4914C1.18625 9.31403 1.04213 9.16992 0.864744 9.16992H0.587582C0.266074 9.16992 0 9.43597 0 9.75745Z" fill="black"></path>
<path d="M19.4126 9.16992H19.1355C18.9581 9.16992 18.814 9.31403 18.814 9.4914V13.1496C18.814 13.327 18.9581 13.4711 19.1355 13.4711H19.4126C19.7341 13.4711 20.0002 13.205 20.0002 12.8836V9.75745C20.0002 9.43597 19.7341 9.16992 19.4126 9.16992Z" fill="black"></path>
<path d="M9.3236 13.8594H7.95996V16.1097H9.3236V13.8594Z" fill="black"></path>
<path d="M12.0401 13.8594H10.6765V16.1097H12.0401V13.8594Z" fill="black"></path>
<path d="M5.4436 14.2474V15.7217C5.4436 15.9324 5.62099 16.1097 5.83163 16.1097H6.61877V13.8594H5.83163C5.6099 13.8594 5.4436 14.0257 5.4436 14.2474Z" fill="black"></path>
<path d="M6.31944 9.4351C6.80724 9.4351 7.19527 9.03602 7.19527 8.55935C7.19527 8.07159 6.79616 7.68359 6.31944 7.68359C5.84272 7.68359 5.4436 8.08267 5.4436 8.55935C5.4436 9.03602 5.83163 9.4351 6.31944 9.4351Z" fill="black"></path>
<path d="M14.1684 13.8594H13.3923V16.1097H14.1795C14.3901 16.1097 14.5675 15.9324 14.5675 15.7217V14.2474C14.5564 14.0257 14.3901 13.8594 14.1684 13.8594Z" fill="black"></path>
<path d="M13.6808 7.68359C13.193 7.68359 12.8049 8.08267 12.8049 8.55935C12.8049 9.04711 13.204 9.4351 13.6808 9.4351C14.1686 9.4351 14.5566 9.03602 14.5566 8.55935C14.5566 8.07159 14.1686 7.68359 13.6808 7.68359Z" fill="black"></path>
<path d="M16.2527 3.78196H11.153C10.8425 3.78196 10.5765 3.527 10.5765 3.20552V3.19443C10.5765 3.00598 10.6762 2.8397 10.8314 2.72884C11.286 2.41845 11.5632 1.87526 11.4745 1.26556C11.3858 0.644774 10.898 0.134848 10.2771 0.0239934C9.33478 -0.142289 8.51438 0.578261 8.51438 1.48727C8.51438 1.9972 8.76936 2.45171 9.16848 2.71776C9.32369 2.82862 9.42347 2.9949 9.42347 3.19443C9.42347 3.50483 9.16848 3.77088 8.84697 3.77088H3.74719C2.97114 3.77088 2.32812 4.40275 2.32812 5.18982V18.5811C2.32812 19.357 2.96005 20 3.74719 20H16.2417C17.0177 20 17.6607 19.3681 17.6607 18.5811V5.2009C17.6607 4.41383 17.0288 3.78196 16.2527 3.78196ZM6.31926 6.33162C7.54985 6.33162 8.54763 7.32932 8.54763 8.5598C8.54763 9.79029 7.54985 10.788 6.31926 10.788C5.08866 10.788 4.09087 9.79029 4.09087 8.5598C4.09087 7.32932 5.08866 6.33162 6.31926 6.33162ZM15.9091 15.721C15.9091 16.6744 15.133 17.4614 14.1685 17.4614H5.82036C4.86693 17.4614 4.07979 16.6854 4.07979 15.721V14.2466C4.07979 13.2933 4.85584 12.5062 5.82036 12.5062H14.1685C15.1219 12.5062 15.9091 13.2822 15.9091 14.2466V15.721ZM13.6807 10.788C12.4501 10.788 11.4523 9.79029 11.4523 8.5598C11.4523 7.32932 12.4501 6.33162 13.6807 6.33162C14.9113 6.33162 15.9091 7.32932 15.9091 8.5598C15.9091 9.79029 14.9113 10.788 13.6807 10.788Z" fill="black"></path>
</svg>
