<svg width="20" height="20" viewBox="0 0 20 20" fill="none" xmlns="http://www.w3.org/2000/svg">
<path d="M18.3958 5.57422H12.7179C12.5435 5.57422 12.4019 5.71715 12.4019 5.89308V9.23557C12.4019 9.41149 12.5435 9.55443 12.7179 9.55443H18.3958C19.0932 9.55443 19.649 8.98268 19.649 8.29V6.83865C19.649 6.14596 19.0823 5.57422 18.3958 5.57422Z" fill="black"></path>
<path d="M0 6.83865V8.279C0 8.98268 0.566697 9.54343 1.25327 9.54343H6.96383C7.1382 9.54343 7.27988 9.4005 7.27988 9.22458V5.89308C7.27988 5.71715 7.1382 5.57422 6.96383 5.57422H1.25327C0.555799 5.57422 0 6.14596 0 6.83865Z" fill="black"></path>
<path d="M1.50366 18.7351C1.50366 19.4388 2.07036 19.9995 2.75693 19.9995H6.96356C7.13793 19.9995 7.27961 19.8566 7.27961 19.6807V11.0825C7.27961 10.9066 7.13793 10.7637 6.96356 10.7637H1.8197C1.64533 10.7637 1.50366 10.9066 1.50366 11.0825V18.7351Z" fill="black"></path>
<path d="M12.7179 20.0002H16.8809C17.5784 20.0002 18.1342 19.4285 18.1342 18.7358V11.0942C18.1342 10.9183 17.9925 10.7754 17.8182 10.7754H12.7179C12.5435 10.7754 12.4019 10.9183 12.4019 11.0942V19.6924C12.4019 19.8573 12.5435 20.0002 12.7179 20.0002Z" fill="black"></path>
<path d="M4.33705 4.36504C4.16268 4.36504 3.99921 4.28807 3.90113 4.14513C3.44341 3.52941 3.33443 2.68279 3.69406 1.93513C4.20627 0.890599 5.45954 0.472787 6.49485 0.989555C6.7782 1.13249 7.13784 1.46234 7.38849 1.72622C7.51927 1.86916 7.75902 1.80319 7.80261 1.61627C7.868 1.3304 8.02057 0.95657 8.33661 0.637713C8.71804 0.252886 9.24115 0 9.81875 0C10.3963 0 10.9194 0.252886 11.3009 0.637713C11.6169 0.95657 11.7695 1.3304 11.8349 1.61627C11.8785 1.80319 12.1182 1.86916 12.249 1.72622C12.5106 1.46234 12.8593 1.13249 13.1426 0.989555C14.178 0.472787 15.4312 0.890599 15.9434 1.93513C16.3031 2.6718 16.205 3.52941 15.7364 4.14513C15.6383 4.28807 15.4748 4.36504 15.3004 4.36504H4.33705Z" fill="black"></path>
<path d="M10.887 20.001H8.79455C8.62019 20.001 8.47852 19.858 8.47852 19.6821V5.88331C8.47852 5.70739 8.62019 5.56445 8.79455 5.56445H10.887C11.0613 5.56445 11.203 5.70739 11.203 5.88331V19.6821C11.203 19.858 11.0613 20.001 10.887 20.001Z" fill="black"></path>
</svg>
