<svg width="20" height="20" viewBox="0 0 20 20" fill="none" xmlns="http://www.w3.org/2000/svg">
<path d="M8.72912 17.9945L5.87072 15.2134C5.37599 14.7369 5.25506 14.0056 5.5519 13.3851L8.06949 8.26601C7.72868 8.06656 7.49781 7.68983 7.49781 7.2577V6.91421L5.56289 7.95576C5.38699 8.0444 5.20009 8.09981 5.0132 8.09981C4.78233 8.09981 4.55146 8.03332 4.35357 7.88928C4.05673 7.67875 3.88083 7.34634 3.85884 6.98069L3.71592 4.99731C3.70493 4.79787 3.51803 4.6649 3.33114 4.70922L1.86896 5.06379C0.758576 5.32972 0 6.30479 0 7.41283V19.435C0 19.7452 0.252859 19.989 0.549693 19.989H8.89403C9.06993 19.989 9.21285 19.845 9.21285 19.6677V18.9807C9.21285 18.615 9.06993 18.2716 8.79508 18.0389C8.7731 18.0278 8.75111 18.0056 8.72912 17.9945Z" fill="black"></path>
<path d="M9.02571 7.21314H10.6088C10.7847 7.21314 10.9276 7.06909 10.9276 6.89181V6.45968C10.9276 6.33779 10.8617 6.23807 10.7627 6.18267L9.97118 5.75054C9.87223 5.69513 9.7623 5.69513 9.67435 5.75054L8.88279 6.18267C8.78384 6.23807 8.71788 6.34887 8.71788 6.45968V6.89181C8.70689 7.06909 8.84981 7.21314 9.02571 7.21314Z" fill="black"></path>
<path d="M14.435 0.897266L11.1369 4.55378C10.9939 4.7089 11.0379 4.95267 11.2248 5.05239L14.1382 6.6258C14.3361 6.7366 14.5889 6.60364 14.5999 6.37095L14.9847 1.14103C15.0067 0.830784 14.6439 0.675659 14.435 0.897266Z" fill="black"></path>
<path d="M12.8849 0.0110803L6.72834 0C6.45349 0 6.31057 0.33241 6.49747 0.531856L9.57575 3.95568C9.69668 4.09972 9.91656 4.09972 10.0485 3.95568L13.1268 0.542936C13.3137 0.33241 13.1597 0.0110803 12.8849 0.0110803Z" fill="black"></path>
<path d="M17.7658 5.06379L16.3036 4.70922C16.1167 4.6649 15.9298 4.79787 15.9188 4.99731L15.7759 6.98069C15.7539 7.34634 15.578 7.68983 15.2811 7.88928C15.0833 8.03332 14.8524 8.09981 14.6215 8.09981C14.4346 8.09981 14.2477 8.05548 14.0718 7.95576L12.1369 6.91421V7.2577C12.1369 7.68983 11.906 8.05548 11.5652 8.26601L14.0828 13.3851C14.3797 13.9945 14.2587 14.7369 13.764 15.2134L10.9056 17.9945C10.8836 18.0167 10.8726 18.0278 10.8506 18.0499C10.5758 18.2826 10.4329 18.6372 10.4329 18.9918V19.6788C10.4329 19.856 10.5758 20.0001 10.7517 20.0001H19.096C19.4038 20.0001 19.6457 19.7452 19.6457 19.4461V7.41283C19.6237 6.30479 18.8651 5.32972 17.7658 5.06379Z" fill="black"></path>
<path d="M12.9841 13.928L10.3675 8.60941C10.3126 8.49861 10.2026 8.43213 10.0817 8.43213H9.532C9.41107 8.43213 9.30113 8.49861 9.24616 8.60941L6.64062 13.9391C6.57466 14.072 6.59664 14.2382 6.70658 14.349L9.56499 17.1302C9.69691 17.2632 9.9058 17.2632 10.0487 17.1302L12.9071 14.349C13.028 14.2271 13.05 14.072 12.9841 13.928Z" fill="black"></path>
<path d="M4.63914 1.13036L5.02392 6.36028C5.04591 6.59296 5.28778 6.72593 5.48567 6.61512L8.39904 5.04172C8.58593 4.94199 8.61891 4.69823 8.48699 4.5431L5.18883 0.886591C4.97995 0.676065 4.61715 0.83119 4.63914 1.13036Z" fill="black"></path>
</svg>
