<svg width="20" height="20" viewBox="0 0 20 20" fill="none" xmlns="http://www.w3.org/2000/svg">
<path d="M12.0129 16.1762H14.9553C15.0438 16.1762 15.0991 16.0881 15.0659 16.0109C14.5017 14.7438 12.4775 14.7438 11.9023 16.0109C11.8691 16.0881 11.9244 16.1762 12.0129 16.1762Z" fill="black"></path>
<path d="M19.988 13.0242C20.0101 12.2749 19.9991 11.5036 19.9769 10.7984V10.7764L19.9659 9.10148C19.9659 9.03537 19.9659 8.98028 19.9548 8.91417C19.9548 8.90315 19.9548 8.89212 19.9548 8.88111C19.9548 8.87009 19.9548 8.85908 19.9438 8.84806C19.9106 8.69379 19.8442 8.53953 19.7557 8.41832C19.7446 8.39628 19.7336 8.38526 19.7115 8.36323C19.7004 8.35221 19.6893 8.33017 19.6783 8.31915C19.6672 8.30813 19.6562 8.2971 19.6451 8.28609L19.634 8.27507C19.2801 7.92247 18.7049 7.77923 18.2292 8.03266C16.8134 8.7599 15.0989 9.1676 13.329 9.14556C13.0083 9.72956 12.599 10.2805 12.1233 10.7764C12.0459 10.8535 12.057 10.9747 12.1344 11.0408C13.5613 12.2308 11.1721 14.0269 10.4088 12.341C10.3646 12.2419 10.2429 12.2088 10.1544 12.2639C9.18101 12.7818 8.097 13.0793 6.96874 13.1344C6.89131 16.0764 8.50627 18.181 10.6301 19.1727C11.4928 19.5914 12.4662 19.8228 13.495 19.8228H13.5281C15.851 19.8339 18.185 18.6548 19.4017 16.0323C19.5566 15.7569 19.6672 15.4263 19.7557 15.0627C19.9106 14.5117 19.988 13.9388 19.988 13.3327V13.0242ZM15.84 17.3877H11.1168C10.7849 17.3877 10.5084 17.1122 10.5084 16.7816C10.5084 15.1508 11.8357 13.8286 13.4728 13.8286C15.4971 13.5531 17.5545 17.013 15.84 17.3877ZM15.5192 13.0352C14.0591 13.0573 14.0591 10.7764 15.5192 10.7984C16.9793 10.7764 16.9793 13.0573 15.5192 13.0352Z" fill="black"></path>
<path d="M8.76063 11.5367C10.1544 11.0519 11.3932 10.1043 12.1454 8.77101C13.4728 6.91984 12.964 3.33871 13.0414 1.21207C13.0635 0.539924 12.4551 0.0110189 11.8246 0C11.8136 0 11.7914 0 11.7804 0C11.5923 0 11.3932 0.0330512 11.2052 0.132221C10.0548 0.71622 8.72744 1.09087 7.31158 1.19004C7.23415 1.20106 7.16778 1.20106 7.09035 1.20106C7.00186 1.21208 6.90231 1.21207 6.81382 1.21207H6.80276C5.56388 1.24513 4.31394 1.07985 3.18568 0.694194C2.67686 0.584005 2.16803 0.231401 1.65921 0.0881563C1.65921 0.0881563 1.65921 0.0881563 1.64815 0.0881563C0.862788 -0.187315 0 0.374647 0 1.24514V1.76302V4.89238V5.45434C0 7.98867 1.4601 10.1704 3.58389 11.2282C3.6392 11.2503 3.68344 11.2833 3.73875 11.3053C3.79406 11.3384 3.86043 11.3604 3.91573 11.3935C3.99316 11.4266 4.07059 11.4596 4.14802 11.4927C4.15908 11.4927 4.15909 11.4927 4.17015 11.5037C4.24758 11.5367 4.325 11.5588 4.40243 11.5918C4.49092 11.6139 4.56836 11.6469 4.65685 11.669C5.2431 11.8453 5.86254 11.9334 6.5041 11.9334C7.30052 11.9334 8.0527 11.8012 8.76063 11.5367C8.74956 11.5367 8.74956 11.5367 8.76063 11.5367ZM8.5947 2.82083C10.0548 2.79879 10.0548 5.0797 8.5947 5.05766C7.1346 5.0797 7.1346 2.79879 8.5947 2.82083ZM5.61919 3.93373C5.64131 5.38822 3.3516 5.38822 3.37373 3.93373C3.3516 2.49026 5.64131 2.49026 5.61919 3.93373ZM5.76299 9.66353C4.50199 9.32195 3.58389 8.176 3.58389 6.80966C3.58389 6.47909 3.86043 6.20362 4.19227 6.20362H8.91548C9.39112 6.20362 9.60129 6.67743 9.5128 7.08513C9.47962 7.50385 9.34688 7.90053 9.14777 8.25313C8.51727 9.39909 7.03505 10.0382 5.76299 9.66353Z" fill="black"></path>
<path d="M8.14139 7.53711C8.14139 7.54813 8.14139 7.54812 8.14139 7.55914C8.00866 7.87869 7.7653 8.13212 7.48877 8.28639C7.7653 8.1211 7.99759 7.87869 8.14139 7.54813C8.14139 7.54813 8.14139 7.54813 8.14139 7.53711Z" fill="black"></path>
<path d="M8.14106 7.53722C8.14106 7.54824 8.14106 7.54824 8.14106 7.54824C7.99727 7.8788 7.76498 8.12121 7.48844 8.28649C7.45526 8.30853 7.42207 8.33057 7.37783 8.34159C7.34464 8.36363 7.31146 8.37465 7.26721 8.38567C7.21191 8.4077 7.14554 8.42974 7.09023 8.45178C7.05705 8.4628 7.02386 8.47382 6.99068 8.47382C6.90219 8.49586 6.8137 8.50688 6.71414 8.5179C6.68096 8.5179 6.64777 8.5179 6.62565 8.52892C6.57034 8.52892 6.5261 8.52892 6.47079 8.52892C6.43761 8.52892 6.41549 8.52892 6.3823 8.5179C6.29381 8.50688 6.20532 8.49586 6.10577 8.47382C6.07258 8.4628 6.0394 8.4628 6.00621 8.45178C5.95091 8.42974 5.88454 8.41872 5.82923 8.38567C5.79605 8.37465 5.76286 8.35261 5.71862 8.34159C5.68543 8.31955 5.65225 8.30853 5.608 8.28649C5.33147 8.12121 5.09918 7.8788 4.95538 7.54824C4.95538 7.54824 4.95538 7.53722 4.94432 7.53722C4.93326 7.48213 4.9775 7.41602 5.04387 7.41602H8.03045C8.10788 7.41602 8.15213 7.48213 8.14106 7.53722Z" fill="black"></path>
<path d="M5.60802 8.29812C5.33148 8.13283 5.08813 7.89041 4.95539 7.57086C4.95539 7.55984 4.9554 7.55985 4.94434 7.54883C4.94434 7.54883 4.94433 7.55984 4.95539 7.55984C5.09919 7.87939 5.33148 8.13283 5.60802 8.29812Z" fill="black"></path>
</svg>
