<svg xmlns="http://www.w3.org/2000/svg" fill="none" viewBox="0 0 20 20" height="20" width="20">
<path fill="black" d="M19.0954 4.26572C18.6382 4.21132 18.2462 4.5704 18.2462 5.02742C18.2462 9.22764 15.0781 12.7097 10.9954 13.1885C10.8757 13.1993 10.7777 13.1123 10.7777 12.9926V12.1765C10.7777 12.0786 10.8539 12.0024 10.9519 11.9806C14.3922 11.5236 17.0487 8.57476 17.0487 5.01654C17.0487 4.59217 16.6894 4.24396 16.2648 4.25484C15.862 4.26572 15.5354 4.63569 15.5245 5.0383C15.5136 7.726 13.5648 9.95669 11.0172 10.4246C10.8974 10.4464 10.7886 10.3593 10.7886 10.2287V9.40174C10.7886 9.3038 10.8539 9.22764 10.941 9.21676C12.8789 8.79238 14.3269 7.07311 14.3269 5.00565C14.3269 4.57039 13.9676 4.22219 13.5321 4.24395C13.1184 4.26571 12.8027 4.62481 12.8027 5.02742C12.7918 6.19173 12.0624 7.18194 11.039 7.58455C10.9083 7.63895 10.7777 7.54101 10.7777 7.39956V5.28858C10.7777 5.19064 10.6906 5.11447 10.5926 5.13623C10.4075 5.17976 10.2116 5.20152 10.0156 5.20152C9.81963 5.20152 9.62366 5.17976 9.43858 5.13623C9.34059 5.11447 9.2535 5.19064 9.2535 5.28858V7.39956C9.2535 7.54101 9.11196 7.62808 8.98132 7.57367C7.95793 7.16018 7.22849 6.15908 7.22849 4.99477C7.22849 4.54863 6.84744 4.18955 6.3793 4.23307C5.98736 4.2766 5.69341 4.62481 5.7043 5.02742C5.72607 7.07312 7.17406 8.78149 9.09019 9.19499C9.17729 9.21675 9.24261 9.29293 9.24261 9.37998V10.207C9.24261 10.3267 9.13374 10.4246 9.01398 10.4028C6.45551 9.93493 4.50672 7.68248 4.50672 4.99477C4.50672 4.54863 4.11478 4.18955 3.65752 4.23307C3.26558 4.2766 2.98252 4.62481 2.98252 5.01654C2.99341 8.56388 5.64986 11.5018 9.0793 11.9589C9.17729 11.9697 9.2535 12.0568 9.2535 12.1547V12.9708C9.2535 13.0905 9.15551 13.1776 9.03575 13.1667C4.96397 12.6879 1.79582 9.22764 1.78494 5.0383C1.78494 4.64657 1.51276 4.29837 1.12082 4.25484C0.652678 4.18956 0.260742 4.55951 0.260742 5.00565C0.260742 10.0655 4.13655 14.2331 9.06842 14.701C9.1664 14.7119 9.24261 14.788 9.24261 14.8968V16.17H10.7559V14.8968C10.7559 14.7989 10.8321 14.7119 10.9301 14.701C15.862 14.2331 19.7269 10.0764 19.7378 5.0383C19.7596 4.66833 19.4874 4.32013 19.0954 4.26572Z"></path>
<path fill="black" d="M12.6067 17.3887H7.4789C6.50995 17.3887 5.72607 18.1721 5.72607 19.1406V19.4561C5.72607 19.7499 5.96559 20.0002 6.27043 20.0002H13.8152C14.12 20.0002 14.3596 19.7608 14.3596 19.4561V19.1406C14.3487 18.1721 13.5648 17.3887 12.6067 17.3887Z"></path>
<path fill="black" d="M8.54547 2.69858C8.54547 2.72035 8.54547 2.73123 8.54547 2.75299C8.54547 2.75299 8.54547 2.75299 8.54547 2.76387C8.54547 2.77475 8.54547 2.79652 8.55636 2.8074C8.55636 2.82916 8.56724 2.8618 8.56724 2.88356C8.57813 2.90532 8.57813 2.93798 8.58902 2.95974C8.58902 2.9815 8.59991 3.00326 8.61079 3.02503C8.61079 3.03591 8.62168 3.05767 8.62168 3.06855V3.07943C8.63257 3.1012 8.63257 3.11208 8.64345 3.13384C8.66523 3.18825 8.687 3.23178 8.70878 3.2753C8.73055 3.30795 8.75233 3.35147 8.7741 3.38412C8.78499 3.395 8.78499 3.39499 8.78499 3.40587C8.79587 3.41676 8.80676 3.42764 8.81765 3.4494C8.82854 3.46028 8.82854 3.47116 8.83942 3.48204C8.85031 3.5038 8.87208 3.52556 8.88297 3.53645C8.89386 3.55821 8.91563 3.56909 8.92652 3.59085C8.94829 3.61262 8.98096 3.64527 9.00273 3.66703C9.00273 3.66703 9.00273 3.66703 9.01362 3.67791C9.03539 3.69967 9.05717 3.72143 9.07894 3.73232C9.10071 3.75408 9.12249 3.76496 9.14426 3.78672C9.16604 3.7976 9.17692 3.80849 9.1987 3.81937C9.1987 3.81937 9.20959 3.81937 9.20959 3.83025C9.20959 3.83025 9.22047 3.83025 9.22047 3.84113C9.29668 3.89554 9.38378 3.92818 9.48176 3.96082C9.50354 3.9717 9.52531 3.97171 9.54709 3.98259C9.56886 3.99347 9.57975 3.99347 9.60152 3.99347C9.6233 4.00435 9.64507 4.00435 9.66684 4.00435H9.67773C9.71039 4.01523 9.73217 4.01523 9.76483 4.01523C9.7866 4.01523 9.79749 4.02611 9.81926 4.02611C9.83015 4.02611 9.84104 4.02611 9.85193 4.02611C9.8737 4.02611 9.88459 4.02611 9.90636 4.02611C9.92814 4.02611 9.9608 4.02611 9.98257 4.02611C10.0043 4.02611 10.037 4.02611 10.0588 4.02611C10.0806 4.02611 10.0914 4.02611 10.1132 4.02611C10.1241 4.02611 10.135 4.02611 10.1459 4.02611C10.1677 4.02611 10.1785 4.02611 10.2003 4.01523C10.233 4.01523 10.2547 4.00435 10.2874 4.00435H10.2983C10.3201 4.00435 10.3418 3.99347 10.3527 3.99347C10.3745 3.99347 10.3854 3.98259 10.4072 3.98259C10.4289 3.97171 10.4507 3.9717 10.4725 3.96082C10.5596 3.92818 10.6467 3.88466 10.7338 3.84113C10.7338 3.84113 10.7447 3.84113 10.7447 3.83025C10.7447 3.83025 10.7556 3.83025 10.7556 3.81937C10.7773 3.80849 10.7882 3.7976 10.81 3.78672C10.8318 3.77584 10.8535 3.75408 10.8753 3.73232C10.8971 3.71055 10.9189 3.69967 10.9406 3.67791C10.9406 3.67791 10.9406 3.67791 10.9515 3.66703C10.9733 3.64527 11.006 3.61262 11.0277 3.59085C11.0386 3.56909 11.0604 3.55821 11.0713 3.53645C11.0822 3.51468 11.1039 3.5038 11.1148 3.48204C11.1257 3.47116 11.1257 3.46028 11.1366 3.4494C11.1475 3.43852 11.1584 3.42764 11.1693 3.40587C11.1693 3.39499 11.1802 3.395 11.1802 3.38412C11.2019 3.35147 11.2237 3.31883 11.2455 3.2753C11.2673 3.23178 11.2999 3.17736 11.3108 3.13384C11.3217 3.11208 11.3217 3.1012 11.3326 3.07943V3.06855C11.3435 3.05767 11.3435 3.03591 11.3435 3.02503C11.3543 3.00326 11.3543 2.9815 11.3652 2.95974C11.3761 2.93798 11.3761 2.90532 11.387 2.88356C11.3979 2.8618 11.3979 2.82916 11.3979 2.8074C11.3979 2.79652 11.3979 2.77475 11.4088 2.76387C11.4088 2.76387 11.4088 2.76387 11.4088 2.75299C11.4088 2.73123 11.4088 2.72034 11.4088 2.70946C11.4088 2.69858 11.4088 2.68771 11.4088 2.67683C11.4088 2.65506 11.4088 2.62241 11.4088 2.58977C11.4088 2.03482 10.7229 0.870511 10.2874 0.184983C10.2656 0.16322 10.2547 0.130568 10.233 0.108805C10.2221 0.097924 10.2221 0.0979293 10.2112 0.0870479C10.2003 0.0761665 10.1894 0.0652905 10.1785 0.0652905C10.1677 0.0544091 10.1459 0.0435197 10.135 0.0435197C10.1023 0.0217569 10.0697 0.0108835 10.037 0.0108835C9.93902 -0.0108793 9.83015 -5.90086e-06 9.74305 0.0435197C9.73217 0.0544011 9.71039 0.0544091 9.69951 0.0652905C9.68862 0.0761718 9.67773 0.0870453 9.66684 0.0979267C9.66684 0.0979267 9.65596 0.097924 9.65596 0.108805C9.64507 0.119687 9.63418 0.130574 9.6233 0.141455C9.6233 0.141455 9.6233 0.141452 9.61241 0.152334C9.60152 0.163215 9.59063 0.174099 9.57975 0.195862C9.14426 0.88139 8.54541 2.03482 8.54541 2.58977C8.54541 2.62241 8.54541 2.64418 8.54541 2.67683C8.54547 2.75299 8.54547 2.6877 8.54547 2.69858Z"></path>
</svg>
