<svg width="20" height="20" viewBox="0 0 20 20" fill="none" xmlns="http://www.w3.org/2000/svg">
<path d="M10.1329 17.2281L10.632 17.7668V19.5481C10.632 19.702 10.51 19.823 10.3547 19.823H9.64486C9.48959 19.823 9.36758 19.702 9.36758 19.5481V17.7559L9.8556 17.2281C9.93323 17.1511 10.0552 17.1511 10.1329 17.2281Z" fill="black"></path>
<path d="M19.4603 12.6979C18.2181 12.2691 16.8206 12.1042 16.011 12.0382C15.767 12.0162 15.6782 11.7193 15.8668 11.5654C17.9297 9.86107 19.1387 8.01382 19.7708 6.79332C20.0925 6.18857 19.549 5.48486 18.8725 5.6278C16.3881 6.16658 14.2364 7.50803 13.3935 8.0908C13.2271 8.21175 12.9942 8.10179 12.972 7.89287C12.5949 3.82453 11.3638 1.4495 10.6096 0.349953C10.3101 -0.0898679 9.66686 -0.122854 9.33412 0.294975C7.38209 2.70299 7.06045 6.50744 7.00499 7.87089C6.9939 8.0798 6.76098 8.20075 6.58353 8.0798C5.71842 7.48605 3.58892 6.15558 1.11561 5.6278C0.450142 5.48486 -0.0933189 6.17757 0.217232 6.78233C0.849425 8.00283 2.05836 9.86107 4.1324 11.5764C4.32094 11.7303 4.22112 12.0272 3.98821 12.0492C3.16746 12.1152 1.76999 12.2911 0.527788 12.7199C-0.0933134 12.9398 -0.193136 13.7755 0.37251 14.1163C1.1378 14.5781 2.43546 15.0949 4.52058 15.2819C4.73132 15.3039 4.83113 15.5348 4.70913 15.6997C4.37639 16.1395 3.8662 16.9312 3.61111 17.9758C3.50019 18.4046 3.86621 18.8114 4.30985 18.7674C5.33023 18.6795 7.08263 18.3166 8.52447 16.8872L9.14557 16.2165C9.3563 15.9856 9.66686 15.8536 9.99959 15.8536C10.3212 15.8536 10.6318 15.9856 10.8425 16.2165L11.0532 16.4474C11.0754 16.4584 11.0976 16.4804 11.1087 16.5024C12.606 18.2616 14.5913 18.6905 15.7004 18.7784C16.144 18.8114 16.5101 18.4156 16.3992 17.9868C16.1441 16.9422 15.6339 16.1395 15.3011 15.7107C15.1791 15.5457 15.279 15.3039 15.4897 15.2929C17.5637 15.1059 18.8503 14.6001 19.6156 14.1493C20.1923 13.7645 20.1036 12.9178 19.4603 12.6979ZM7.28227 10.2459C7.28227 9.71813 7.71482 9.28931 8.24719 9.28931C8.77956 9.28931 9.21211 9.71813 9.21211 10.2459C9.21211 10.7737 8.77956 11.2025 8.24719 11.2025C7.71482 11.2025 7.28227 10.7737 7.28227 10.2459ZM12.2954 13.3686C11.8407 14.2043 10.9645 14.7211 10.0107 14.7211C9.04575 14.7211 8.16955 14.1933 7.71481 13.3577C7.55954 13.0608 7.67046 12.6979 7.95883 12.544C8.25829 12.39 8.62429 12.5 8.77957 12.7859C9.02357 13.2367 9.4894 13.5116 9.99959 13.5116C10.5098 13.5116 10.9756 13.2367 11.2196 12.7969C11.3749 12.5 11.752 12.401 12.0514 12.555C12.3398 12.7089 12.4507 13.0828 12.2954 13.3686ZM11.752 11.2025C11.2196 11.2025 10.7871 10.7737 10.7871 10.2459C10.7871 9.71813 11.2196 9.28931 11.752 9.28931C12.2843 9.28931 12.7169 9.71813 12.7169 10.2459C12.7169 10.7737 12.2843 11.2025 11.752 11.2025Z" fill="black"></path>
</svg>
