<svg width="21" height="20" viewBox="0 0 21 20" fill="none" xmlns="http://www.w3.org/2000/svg">
<path d="M12.2524 10.1053C12.2524 9.77257 11.986 9.50635 11.653 9.50635C11.3201 9.50635 11.0537 9.77257 11.0537 10.1053C11.0537 10.4381 11.3201 10.7044 11.653 10.7044C11.986 10.7044 12.2524 10.4381 12.2524 10.1053Z" fill="black"></path>
<path d="M11.6537 3.68274C8.11319 3.68274 5.22754 6.56682 5.22754 10.1054C5.22754 13.6439 8.11319 16.528 11.6537 16.528C15.1942 16.528 18.0798 13.6439 18.0798 10.1054C18.0798 6.56682 15.1942 3.68274 11.6537 3.68274ZM8.12429 10.1054C8.12429 10.4381 7.84683 10.7155 7.51387 10.7155C7.18091 10.7155 6.90344 10.4381 6.90344 10.1054C6.90344 7.48751 9.03439 5.35772 11.6537 5.35772C11.9866 5.35772 12.2641 5.63504 12.2641 5.96782C12.2641 6.3006 11.9866 6.57791 11.6537 6.57791C9.70031 6.57791 8.12429 8.16416 8.12429 10.1054ZM9.8335 10.1054C9.8335 9.10703 10.6548 8.28618 11.6537 8.28618C12.6526 8.28618 13.4739 9.10703 13.4739 10.1054C13.4739 11.1037 12.6526 11.9246 11.6537 11.9246C10.6437 11.9246 9.8335 11.1148 9.8335 10.1054ZM16.4039 10.1054C16.4039 12.7232 14.273 14.853 11.6537 14.853C11.3207 14.853 11.0432 14.5757 11.0432 14.2429C11.0432 13.9101 11.3207 13.6328 11.6537 13.6328C13.5959 13.6328 15.1831 12.0466 15.1831 10.1054C15.1831 9.77259 15.4605 9.49527 15.7935 9.49527C16.1264 9.49527 16.4039 9.77259 16.4039 10.1054Z" fill="black"></path>
<path d="M1.49803 0C0.787713 0 0.22168 0.576816 0.22168 1.27565V18.7243C0.22168 19.4343 0.798812 20 1.49803 20H1.65341C1.83099 20 1.97527 19.8558 1.97527 19.6783V0.321685C1.97527 0.144203 1.83099 0 1.65341 0H1.49803Z" fill="black"></path>
<path d="M18.9558 0H3.50644C3.32886 0 3.18457 0.144203 3.18457 0.321685V19.6783C3.18457 19.8558 3.32886 20 3.50644 20H18.9447C19.655 20 20.2211 19.4232 20.2211 18.7243V1.27565C20.2322 0.565724 19.655 0 18.9558 0ZM11.6529 17.7593C7.43537 17.7593 4.00588 14.3317 4.00588 10.1165C4.00588 5.90128 7.43537 2.47365 11.6529 2.47365C15.8704 2.47365 19.2999 5.90128 19.2999 10.1165C19.2999 14.3317 15.8704 17.7593 11.6529 17.7593Z" fill="black"></path>
</svg>
