<svg width="20" height="20" viewBox="0 0 20 20" fill="none" xmlns="http://www.w3.org/2000/svg">
<path d="M13.0171 2.42722H6.98251C6.58317 2.42722 6.26147 2.10884 6.26147 1.71361C6.26147 1.31838 6.58317 1 6.98251 1H13.0171C13.4164 1 13.7381 1.31838 13.7381 1.71361C13.7381 2.11982 13.4164 2.42722 13.0171 2.42722Z" fill="black"></path>
<path d="M13.8381 9.54124C13.1503 9.61809 12.7399 9.96941 12.4403 10.2219C12.1519 10.4744 11.9744 10.6281 11.564 10.6281C11.1536 10.6281 10.9761 10.4744 10.6877 10.2219C10.3438 9.92549 9.87788 9.51928 9.00154 9.51928C8.13629 9.51928 7.65929 9.92549 7.31541 10.2219C7.02699 10.4744 6.8495 10.6281 6.43907 10.6281C6.06191 10.6281 5.88443 10.5074 5.64038 10.2988L6.88278 8.53121C7.18229 8.10305 7.34869 7.59803 7.34869 7.07106V3.63477H12.6733V7.07106C12.6733 7.59803 12.8397 8.10305 13.1392 8.53121L13.8381 9.54124Z" fill="black"></path>
<path d="M19.7729 17.9939L14.892 11.0554C14.659 10.8578 14.4815 10.748 14.1155 10.748C13.705 10.748 13.5276 10.9017 13.2391 11.1543C12.8953 11.4507 12.4294 11.8569 11.553 11.8569C10.6767 11.8569 10.2108 11.4507 9.86688 11.1543C9.57847 10.9017 9.40098 10.748 8.99054 10.748C8.5801 10.748 8.40263 10.9017 8.11421 11.1543C7.77033 11.4507 7.30442 11.8569 6.42808 11.8569C5.70704 11.8569 5.26332 11.5824 4.93053 11.308L0.227132 18.0049C-0.3497 18.8173 0.238233 19.9371 1.24769 19.9371H18.7523C19.7618 19.9261 20.3497 18.8063 19.7729 17.9939ZM5.6072 18.1147C5.09693 18.1147 4.69759 17.7085 4.69759 17.2144C4.69759 16.7204 5.10802 16.3142 5.6072 16.3142C6.10638 16.3142 6.51683 16.7204 6.51683 17.2144C6.51683 17.7085 6.10638 18.1147 5.6072 18.1147ZM8.41371 15.5128C7.70377 15.5128 7.12694 14.9419 7.12694 14.2392C7.12694 13.5366 7.70377 12.9657 8.41371 12.9657C9.12366 12.9657 9.70049 13.5366 9.70049 14.2392C9.70049 14.9419 9.12366 15.5128 8.41371 15.5128ZM13.3944 18.4989C12.5403 18.4989 11.8525 17.8183 11.8525 16.9729C11.8525 16.1276 12.5403 15.4469 13.3944 15.4469C14.2486 15.4469 14.9364 16.1276 14.9364 16.9729C14.9253 17.8183 14.2375 18.4989 13.3944 18.4989Z" fill="black"></path>
</svg>
