<?xml version="1.0" encoding="UTF-8"?>
<svg id="Layer_2" data-name="Layer 2" xmlns="http://www.w3.org/2000/svg" viewBox="0 0 70 70">
  <g id="Layer_1-2" data-name="Layer 1">
    <path d="M54.618,68.836v-25.402c0-.659-.544-1.202-1.204-1.202H16.393c-.66,0-1.165.543-1.165,1.164v25.479c0,.62.505,1.125,1.127,1.125h37.214c.583-.039,1.049-.543,1.049-1.163ZM24.59,47.119h20.666c1.165,0,2.137.97,2.137,2.133s-.971,2.133-2.137,2.133h-20.666c-1.165,0-2.136-.97-2.136-2.133s.971-2.133,2.136-2.133ZM22.453,57.435c0-1.163.971-2.133,2.136-2.133h20.666c1.165,0,2.137.969,2.137,2.133s-.971,2.133-2.137,2.133h-20.666c-1.165,0-2.136-.969-2.136-2.133Z"/>
    <path d="M15.228,17.568c0,.659.544,1.202,1.204,1.202h22.997c.66,0,1.204-.543,1.204-1.202V1.125c0-.621-.505-1.125-1.126-1.125h-23.191c-.622,0-1.127.504-1.127,1.125v16.443h.039ZM26.376,5.662c0-.62.505-1.125,1.127-1.125h8.235c.622,0,1.126.504,1.126,1.125v8.222c0,.621-.505,1.125-1.126,1.125h-8.235c-.622,0-1.127-.504-1.127-1.125V5.662Z"/>
    <path d="M68.368,15.474L54.578,1.668c-1.049-1.047-2.486-1.629-3.962-1.629h-5.672v17.568c0,3.025-2.447,5.468-5.477,5.468h-22.997c-3.03,0-5.477-2.443-5.477-5.468V.039h-6.526C1.981.039,0,2.056,0,4.499v60.964c0,2.482,2.02,4.46,4.467,4.46h6.487v-26.565c0-2.986,2.447-5.429,5.438-5.429h37.02c3.03,0,5.477,2.443,5.477,5.468v26.526h6.643c2.486,0,4.467-2.017,4.467-4.46V19.43c0-1.512-.583-2.909-1.632-3.956Z"/>
  </g>
</svg>