<svg width="20" height="20" viewBox="0 0 20 20" fill="none" xmlns="http://www.w3.org/2000/svg">
<path d="M19.8455 10.898C19.8014 10.6319 19.4814 10.5321 19.3049 10.7317C19.2057 10.8315 19.1064 10.9423 19.0071 11.031C18.8968 11.1308 18.7534 11.1862 18.61 11.1862C18.4555 11.1862 18.3011 11.1308 18.1908 11.0088C17.9481 10.7649 17.9701 10.3436 18.2239 10.1108C18.6541 9.7228 18.9519 9.21282 19.1064 8.65849C19.1064 8.65849 19.1064 8.6585 19.1064 8.64741C19.1615 8.41459 19.1946 8.17068 19.1946 7.91569C19.1946 6.87356 18.6982 5.95339 17.937 5.37689C17.7936 5.26602 17.573 5.31037 17.4848 5.46558C16.9552 6.37467 16.0396 6.96226 14.9917 7.05095C14.8372 7.06203 14.7159 7.18399 14.7048 7.3392C14.6497 7.84918 14.4842 8.34807 14.1864 8.80262C14.065 8.98 13.8775 9.07978 13.6899 9.07978C13.5576 9.07978 13.4252 9.03544 13.3149 8.94675C13.0722 8.74719 13.0281 8.38133 13.2046 8.12634C13.8003 7.20616 13.5576 5.96447 12.664 5.35471C12.4103 5.17733 12.311 4.83364 12.4434 4.55648C12.6089 4.22389 13.017 4.12411 13.3149 4.32367C13.8223 4.66735 14.1974 5.13298 14.4401 5.66513C14.4842 5.776 14.5945 5.84252 14.7159 5.84252C15.477 5.86469 16.1941 5.42123 16.5361 4.72278C17.0656 3.53652 16.8229 2.03985 15.808 1.01989C14.5283 -0.288323 12.5096 -0.343757 11.2961 0.886846L11.2851 0.89793C10.8659 1.3303 10.6453 1.92898 10.6453 2.53873V16.8847C10.6673 18.6142 12.1235 20 13.9326 20C15.5763 20 16.9332 18.8359 17.1759 17.3282H17.1648C17.2752 16.8071 17.1869 16.2638 16.9001 15.8093C16.6684 15.4434 16.3375 15.1774 15.9514 15.0222C15.8411 14.9778 15.7197 15 15.6315 15.0887C15.2012 15.4878 14.6717 15.765 14.0871 15.8869C14.0429 15.898 14.0099 15.898 13.9657 15.898C13.6679 15.898 13.4031 15.6763 13.37 15.3548C13.3369 15.0332 13.5576 14.745 13.8664 14.6785C14.3739 14.5676 14.8151 14.2683 15.113 13.8248C15.3998 13.3814 15.5101 12.8492 15.4219 12.3281C15.3667 12.0177 15.5322 11.7073 15.819 11.6075C16.172 11.4966 16.525 11.7184 16.5912 12.0731C16.6905 12.5942 16.6684 13.1264 16.514 13.6253C16.4699 13.7805 16.5361 13.9357 16.6795 14.0133C17.1759 14.2683 17.5951 14.6563 17.9039 15.1441C18.0143 15.3104 18.1025 15.4878 18.1797 15.6763C18.268 15.898 18.5658 15.9423 18.7203 15.7539C19.5256 14.745 19.9999 13.47 19.9999 12.0731C19.9448 11.6962 19.9117 11.2971 19.8455 10.898Z" fill="black"></path>
<path d="M0.15444 10.898C0.198566 10.6319 0.518478 10.5321 0.694981 10.7317C0.794264 10.8315 0.893547 10.9423 0.99283 11.031C1.10314 11.1308 1.24655 11.1862 1.38996 11.1862C1.5444 11.1862 1.69884 11.1308 1.80916 11.0088C2.05185 10.7649 2.02979 10.3436 1.77606 10.1108C1.34584 9.7228 1.04799 9.21282 0.893547 8.65849C0.893547 8.65849 0.893547 8.6585 0.893547 8.64741C0.838389 8.41459 0.805295 8.17068 0.805295 7.91569C0.805295 6.87356 1.30171 5.95339 2.06288 5.37689C2.20629 5.26602 2.42692 5.31037 2.51517 5.46558C3.04468 6.37467 3.96029 6.96226 5.00827 7.05095C5.16271 7.06203 5.28406 7.18399 5.29509 7.3392C5.35025 7.84918 5.51572 8.34807 5.81357 8.80262C5.93492 8.98 6.12245 9.07978 6.30998 9.07978C6.44236 9.07978 6.57474 9.03544 6.68505 8.94675C6.92774 8.74719 6.97187 8.38133 6.79537 8.12634C6.19967 7.20616 6.44236 5.96447 7.33591 5.35471C7.58963 5.17733 7.68891 4.83364 7.55654 4.55648C7.39107 4.22389 6.9829 4.12411 6.68505 4.32367C6.17761 4.66735 5.80254 5.13298 5.55985 5.66513C5.51572 5.776 5.40541 5.84252 5.28406 5.84252C4.52289 5.86469 3.80585 5.42123 3.46387 4.72278C2.93436 3.53652 3.17705 2.03985 4.19195 1.01989C5.47159 -0.288323 7.49035 -0.343757 8.70381 0.886846L8.71484 0.89793C9.13403 1.3303 9.35466 1.92898 9.35466 2.53873V16.8847C9.3326 18.6142 7.87645 20 6.06729 20C4.42361 20 3.06674 18.8359 2.82405 17.3282H2.83508C2.72477 16.8071 2.81302 16.2638 3.09983 15.8093C3.3315 15.4434 3.66244 15.1774 4.04854 15.0222C4.15885 14.9778 4.2802 15 4.36845 15.0887C4.79868 15.4878 5.32819 15.765 5.91285 15.8869C5.95698 15.898 5.99007 15.898 6.0342 15.898C6.33205 15.898 6.5968 15.6763 6.6299 15.3548C6.66299 15.0332 6.44236 14.745 6.13348 14.6785C5.62604 14.5676 5.18478 14.2683 4.88693 13.8248C4.60011 13.3814 4.4898 12.8492 4.57805 12.3281C4.6332 12.0177 4.46773 11.7073 4.18092 11.6075C3.82791 11.4966 3.4749 11.7184 3.40872 12.0731C3.30943 12.5942 3.3315 13.1264 3.48594 13.6253C3.53006 13.7805 3.46387 13.9357 3.32046 14.0133C2.82405 14.2683 2.40485 14.6563 2.09597 15.1441C1.98566 15.3104 1.89741 15.4878 1.82019 15.6763C1.73194 15.898 1.43409 15.9423 1.27965 15.7539C0.474352 14.745 0 13.47 0 12.0731C0.0551572 11.6962 0.0882515 11.2971 0.15444 10.898Z" fill="black"></path>
</svg>
