<svg width="20" height="20" viewBox="0 0 20 20" fill="none" xmlns="http://www.w3.org/2000/svg">
<path d="M17.5069 19.823H2.47091C1.10803 19.823 0 18.7241 0 17.3726V15.8562C0 15.5485 0.254848 15.3068 0.554017 15.3068H19.4238C19.7341 15.3068 19.9778 15.5595 19.9778 15.8562V17.3726C19.9778 18.7241 18.8698 19.823 17.5069 19.823Z" fill="black"></path>
<path d="M3.72309 12.7245C4.04442 12.7575 4.35467 12.6146 4.55411 12.3729C5.09705 11.6916 6.01672 11.3839 6.89206 11.6477C7.435 11.8015 7.8893 12.1861 8.17738 12.6696L8.48763 13.197C8.79788 13.7245 9.3519 14.0761 9.9724 14.0761C10.5929 14.0761 11.1469 13.7684 11.4572 13.241L11.8117 12.6366C12.1774 12.0213 12.82 11.6147 13.5513 11.5598C14.2716 11.5048 14.9696 11.8125 15.4128 12.3729C15.6123 12.6256 15.9336 12.7575 16.2549 12.7245C16.5763 12.6916 16.8533 12.5157 16.9973 12.23L17.23 11.6806C17.3187 11.4718 17.1635 11.2411 16.9308 11.2411H3.04719C2.82559 11.2411 2.67046 11.4718 2.74802 11.6806L2.98071 12.23C3.12475 12.5157 3.40176 12.6916 3.72309 12.7245Z" fill="black"></path>
<path d="M7.11357 13.2409C6.90304 12.8893 6.51523 12.7025 6.0831 12.7794C5.85041 12.8234 5.66205 12.9552 5.50692 13.131C5.04155 13.7024 4.33241 13.9991 3.59003 13.9222C2.84764 13.8453 2.20499 13.4058 1.88366 12.7464L1.86149 12.7025L1.59557 12.0432C1.32964 11.3949 0.376731 11.3619 0.0997223 12.0102C0.0332403 12.1641 0 12.3289 0 12.4937V13.2299C0 13.7024 0.38781 14.087 0.864265 14.087H7.63435C7.57895 14.0101 7.52354 13.9222 7.46814 13.8343L7.11357 13.2409Z" fill="black"></path>
<path d="M18.3933 12.0542L18.1052 12.7465C17.7728 13.4058 17.1301 13.8453 16.3988 13.9222C15.6675 13.9991 14.9473 13.7025 14.4819 13.1311C14.3379 12.9553 14.1384 12.8124 13.9057 12.7794C13.4736 12.7025 13.0747 12.8893 12.8753 13.2409L12.5207 13.8453C12.4653 13.9332 12.4099 14.0101 12.3545 14.098H19.1246C19.601 14.098 19.9888 13.7134 19.9888 13.2409V12.5047C19.9888 12.3509 19.9667 12.208 19.9113 12.0652C19.6454 11.3839 18.6703 11.3729 18.3933 12.0542Z" fill="black"></path>
<path d="M17.4848 8.36212C17.1081 8.5709 16.6316 8.83462 15.7563 8.83462C14.8809 8.83462 14.4045 8.5709 14.0278 8.36212C13.6953 8.17532 13.4516 8.04346 12.8976 8.04346C12.3435 8.04346 12.0998 8.17532 11.7674 8.36212C11.3906 8.5709 10.9142 8.83462 10.0388 8.83462C9.16349 8.83462 8.68704 8.5709 8.31031 8.36212C7.9779 8.17532 7.73413 8.04346 7.18011 8.04346C6.6261 8.04346 6.38233 8.17532 6.04992 8.36212C5.67319 8.5709 5.19673 8.83462 4.32139 8.83462C3.44604 8.83462 2.96959 8.5709 2.59286 8.36212C2.26045 8.17532 2.01668 8.04346 1.46266 8.04346C1.07485 8.04346 0.797841 8.12038 0.587315 8.20829C0.277065 8.35114 0.0554578 8.64782 0.0222168 8.97747C0.0222168 8.98846 0.0222168 9.01044 0.0222168 9.02143C0.0222168 9.57085 0.44327 10.0214 0.964045 10.0214H19.0582C19.579 10.0214 20.0001 9.57085 20.0001 9.02143C20.0001 9.02143 20.0001 9.02143 20.0001 9.01044C20.0001 8.63683 19.7563 8.31817 19.4128 8.16433C19.2134 8.07643 18.9807 8.02148 18.6372 8.02148C18.061 8.04346 17.8172 8.17532 17.4848 8.36212Z" fill="black"></path>
<path d="M15.3684 0.219767C15.2465 0.186802 15.1247 0.219767 15.0471 0.307674C15.036 0.318663 14.4709 0.879069 14.4709 0.879069C14.349 0.999941 14.1939 1.05488 14.0388 1.05488C13.7285 1.05488 13.4294 0.824127 13.3961 0.373604C13.3961 0.285697 13.4294 0.197791 13.4848 0.13186C13.5291 0.0879069 13.4958 0 13.4294 0H6.19391C6.06094 0 5.92798 -1.06431e-08 5.79501 0.0109884C5.60665 0.0219767 5.47368 0.186802 5.49584 0.362616C5.518 0.53843 5.4626 0.73622 5.32964 0.868081C5.20775 0.988953 5.05263 1.04389 4.89751 1.04389C4.74238 1.04389 4.58726 0.988953 4.46537 0.868081L4.14404 0.549418C4.0554 0.461511 3.91136 0.428546 3.78947 0.483488C1.56232 1.4175 0 3.60418 0 6.15348C0 6.56005 0.332408 6.88971 0.74238 6.88971H19.2355C19.6454 6.88971 19.9778 6.56005 19.9778 6.15348C19.9778 3.3075 18.0277 0.912034 15.3684 0.219767ZM4.63158 3.32947L4.07756 3.87889C3.95568 3.99977 3.80055 4.05471 3.64543 4.05471C3.4903 4.05471 3.33518 3.99977 3.2133 3.87889C2.98061 3.64814 2.98061 3.26354 3.2133 3.0218L3.76731 2.47238C4 2.24163 4.38781 2.24163 4.63158 2.47238C4.87535 2.71413 4.87535 3.08773 4.63158 3.32947ZM9.10803 1.57134L8.55402 2.12075C8.43213 2.24163 8.27701 2.29657 8.12188 2.29657C7.96676 2.29657 7.81163 2.24163 7.68975 2.12075C7.45706 1.89 7.45706 1.50541 7.68975 1.26366L8.24377 0.714244C8.47645 0.483488 8.86426 0.483488 9.10803 0.714244C9.3518 0.944999 9.3518 1.32959 9.10803 1.57134ZM12.6648 3.87889C12.5429 3.99977 12.3878 4.05471 12.2327 4.05471C12.0776 4.05471 11.9224 3.99977 11.8006 3.87889L11.2465 3.32947C11.0139 3.09872 11.0139 2.71413 11.2465 2.47238C11.4792 2.24163 11.867 2.24163 12.1108 2.47238L12.6648 3.0218C12.9086 3.26354 12.9086 3.63715 12.6648 3.87889ZM17.518 3.10971L16.964 3.65913C16.8421 3.78 16.687 3.83494 16.5319 3.83494C16.3767 3.83494 16.2216 3.78 16.0997 3.65913C15.867 3.42837 15.867 3.04378 16.0997 2.80203L16.6537 2.25261C16.8864 2.02186 17.2742 2.02186 17.518 2.25261C17.7618 2.49436 17.7618 2.86796 17.518 3.10971Z" fill="black"></path>
</svg>
