<svg width="20" height="20" viewBox="0 0 20 20" fill="none" xmlns="http://www.w3.org/2000/svg">
<path d="M19.9831 10.0843C19.8612 7.52238 18.9751 4.24442 18.4212 2.40965C18.1664 1.57058 17.4021 1 16.5381 1H5.49424C4.7853 1 4.17606 1.50345 4.04314 2.20827L3.66651 4.23322C3.5779 4.5241 3.38958 4.77023 3.12373 4.90448C1.27386 5.84424 0 8.00344 0 10.2298C0 12.5904 1.41787 14.8167 3.44497 15.7005C4.05421 15.9131 4.7853 16.0473 5.35023 16.0473C5.83763 16.0473 6.31394 15.9802 6.77917 15.8571C7.08933 15.7676 7.43273 15.9243 7.5435 16.2263C7.67642 16.5732 7.48811 16.9647 7.13364 17.0654C6.55763 17.222 5.9484 17.3115 5.35023 17.3115C4.86284 17.3115 4.28683 17.2332 3.74406 17.099V18.4639C3.74406 19.0792 4.23144 19.5714 4.84068 19.5714C4.84068 19.5714 6.61302 19.5714 8.78413 19.5602C9.11645 19.5602 9.38229 19.2917 9.38229 18.9561V15.6334C7.59888 14.5594 6.40256 12.5904 6.40256 10.3528C6.40256 9.09984 6.77917 7.91394 7.4438 6.92943C7.28872 6.69449 7.10041 6.48194 6.90103 6.26937C6.6241 5.98968 6.30286 5.74356 5.97055 5.54218C5.69362 5.38555 5.5607 5.03873 5.69362 4.74785C5.8487 4.41222 6.24747 4.27797 6.55763 4.46816C7.00072 4.72547 7.39949 5.03873 7.76504 5.40792C7.94227 5.58692 8.09735 5.76593 8.24135 5.95612C9.04998 5.1618 10.0912 4.58004 11.2543 4.33391C11.6088 4.26679 11.9411 4.50172 12.0076 4.85972C12.0629 5.20654 11.8193 5.5198 11.4759 5.59812C9.26045 6.068 7.66534 8.07058 7.66534 10.3528C7.66534 13.0379 9.82537 15.2195 12.4839 15.2195C12.8937 15.2195 13.3036 15.1635 13.7024 15.0628C14.0236 14.9845 14.367 15.13 14.4778 15.4432C14.6107 15.8012 14.4113 16.1928 14.0458 16.2935C13.5362 16.4277 13.0045 16.4948 12.4728 16.4948C11.8193 16.4948 11.1879 16.383 10.5897 16.1928V18.9449C10.5897 19.2806 10.8555 19.5602 11.1989 19.5491C13.8907 19.5491 16.4273 19.5379 16.4827 19.5379C17.535 19.5379 18.5098 18.9561 18.8643 17.9492C19.4403 16.3158 20.116 13.0379 19.9831 10.0843Z" fill="black"></path>
</svg>
