<svg width="20" height="20" viewBox="0 0 20 20" fill="none" xmlns="http://www.w3.org/2000/svg">
<path d="M16.1732 13.1243C16.2841 13.0913 16.395 13.0693 16.5059 13.0473C16.6168 13.0253 16.6834 12.9153 16.6612 12.8163C15.8849 9.96732 14.3766 7.3603 12.2473 5.20428C9.24182 2.16826 5.30478 0.353243 1.0683 0.0232405C0.558143 -0.0207598 0.0923519 0.331242 0.0258103 0.837246C-0.0407313 1.37625 0.358518 1.84925 0.890851 1.88225C4.68372 2.16826 8.21043 3.79627 10.9054 6.51329C12.4247 8.0533 13.5892 9.84632 14.3544 11.8043C14.3877 11.8813 14.4321 11.9363 14.5097 11.9693C15.0198 12.2333 15.4856 12.5963 15.8738 13.0363C15.9292 13.1133 16.0512 13.1463 16.1732 13.1243Z" fill="black"></path>
<path d="M19.9775 4.04889C20.0107 2.76188 18.9793 1.69487 17.6818 1.66187C17.2382 1.65087 16.8167 1.77187 16.4508 1.98087C16.0072 0.847863 14.8981 0.0338568 13.5895 0.000856583C12.1588 -0.0321437 10.9389 0.891861 10.5286 2.16787C11.4491 2.80588 12.303 3.54288 13.1015 4.34589C13.7004 4.95089 14.2438 5.5889 14.754 6.2599C15.7964 6.2819 17.0607 6.3149 17.5709 6.3259C18.8795 6.3589 19.9553 5.3359 19.9775 4.04889Z" fill="black"></path>
<path d="M12.4578 11.4185C12.6463 11.4295 12.7683 11.2425 12.6796 11.0775C12.0142 9.7355 11.127 8.48149 10.0401 7.38148C7.62243 4.92846 4.4728 3.43245 1.06809 3.10245C0.557933 3.05845 0.0810515 3.39945 0.0145099 3.90545C-0.0520317 4.44446 0.336128 4.90646 0.86846 4.96146C3.82956 5.23646 6.57995 6.54547 8.6871 8.67949C9.49669 9.5045 10.1732 10.4175 10.7277 11.3965C10.7942 11.5175 10.9384 11.5835 11.0826 11.5505C11.4597 11.4515 11.8589 11.4075 12.2582 11.4075C12.3247 11.4185 12.3912 11.4185 12.4578 11.4185Z" fill="black"></path>
<path d="M9.49691 12.2769C9.62999 12.1779 9.67435 12.0019 9.58563 11.8589C9.10875 11.0339 8.53206 10.2638 7.84446 9.55984C6.01457 7.68983 3.65234 6.52382 1.09049 6.20482C0.558155 6.13882 0.0590932 6.51282 0.00364188 7.04082C-0.0407192 7.54683 0.32526 7.98683 0.824322 8.05283C2.97583 8.31683 4.96099 9.29584 6.49145 10.8579C7.15686 11.5399 7.71138 12.2989 8.13281 13.1239C8.21044 13.2779 8.42115 13.2999 8.53206 13.1679C8.64296 13.0359 8.75386 12.9149 8.87585 12.7939C9.06439 12.6069 9.2751 12.4309 9.49691 12.2769Z" fill="black"></path>
<path d="M17.2043 14.2573C17.1267 14.2573 17.0491 14.2573 16.9825 14.2683C16.5611 14.3013 16.1729 14.4333 15.8291 14.6313C15.6739 14.7193 15.4743 14.6753 15.3855 14.5213C15.2746 14.3233 15.1415 14.1253 14.9863 13.9493C14.5759 13.4653 14.0325 13.0913 13.4115 12.8823C13.0455 12.7613 12.6573 12.6953 12.2581 12.6953C11.9476 12.6953 11.6592 12.7283 11.3709 12.8053C10.9716 12.9043 10.5945 13.0803 10.2618 13.3003C9.6186 13.7293 9.13063 14.3563 8.87555 15.0933C8.78683 15.3353 8.73138 15.5883 8.6981 15.8523C8.67592 16.0283 8.50957 16.1493 8.33213 16.1273C8.25449 16.1163 8.16577 16.1053 8.07705 16.1053C7.05675 16.1053 6.22498 16.9194 6.20279 17.9314C6.18061 18.9764 7.07893 19.8234 8.12141 19.8234H17.1378C18.7015 19.8234 20.0324 18.5474 19.9991 16.9964C19.9769 15.4673 18.7348 14.2573 17.2043 14.2573Z" fill="black"></path>
</svg>
