<svg width="20" height="20" viewBox="0 0 20 20" fill="none" xmlns="http://www.w3.org/2000/svg">
<path d="M19.6357 12.7539C19.6468 12.765 19.6468 12.776 19.6468 12.787C19.6468 12.776 19.6468 12.765 19.6357 12.7539Z" fill="black"></path>
<path d="M13.775 19.0938C13.764 19.1048 13.764 19.1048 13.7529 19.1048C13.764 19.1048 13.775 19.0938 13.775 19.0938Z" fill="black"></path>
<path d="M13.8743 19.0039C13.8743 19.015 13.8633 19.015 13.8633 19.026C13.8633 19.015 13.8633 19.0039 13.8743 19.0039Z" fill="black"></path>
<path d="M13.8302 19.0508C13.8192 19.0618 13.8191 19.0618 13.8081 19.0729C13.8191 19.0618 13.8192 19.0618 13.8302 19.0508Z" fill="black"></path>
<path d="M13.7306 19.125C13.7195 19.125 13.7195 19.136 13.7085 19.136C13.7085 19.136 13.7195 19.136 13.7306 19.125Z" fill="black"></path>
<path d="M19.658 12.8086C19.669 12.8307 19.669 12.8528 19.68 12.8859C19.669 12.8528 19.669 12.8307 19.658 12.8086Z" fill="black"></path>
<path d="M13.6203 19.1719C13.6092 19.1719 13.5982 19.1829 13.5872 19.1829C13.5982 19.1829 13.6092 19.1829 13.6203 19.1719Z" fill="black"></path>
<path d="M13.6752 19.1602C13.6642 19.1602 13.6531 19.1712 13.6421 19.1712C13.6531 19.1602 13.6642 19.1602 13.6752 19.1602Z" fill="black"></path>
<path d="M19.5696 12.6445C19.5806 12.6556 19.5916 12.6666 19.5916 12.6777C19.5806 12.6666 19.5806 12.6556 19.5696 12.6445Z" fill="black"></path>
<path d="M19.6025 12.6992C19.6136 12.7103 19.6136 12.7213 19.6246 12.7324C19.6246 12.7213 19.6136 12.7103 19.6025 12.6992Z" fill="black"></path>
<path d="M19.6355 13.1953C19.6355 13.2064 19.6245 13.2064 19.6245 13.2174C19.6356 13.2064 19.6355 13.1953 19.6355 13.1953Z" fill="black"></path>
<path d="M19.6026 13.25C19.6026 13.261 19.5916 13.261 19.5916 13.2721C19.6026 13.261 19.6026 13.261 19.6026 13.25Z" fill="black"></path>
<path d="M13.4109 19.1946C13.3998 19.1946 13.3888 19.1946 13.3667 19.1836C13.3888 19.1946 13.3998 19.1946 13.4109 19.1946Z" fill="black"></path>
<path d="M19.5143 13.3594C19.5032 13.3594 19.5032 13.3704 19.4922 13.3704C19.5032 13.3704 19.5032 13.3594 19.5143 13.3594Z" fill="black"></path>
<path d="M19.5697 13.3047C19.5697 13.3157 19.5586 13.3157 19.5476 13.3268C19.5586 13.3157 19.5587 13.3157 19.5697 13.3047Z" fill="black"></path>
<path d="M18.3445 19.4673C18.4438 19.4673 18.5432 19.4341 18.6315 19.3789C18.5432 19.4341 18.4438 19.4673 18.3445 19.4673Z" fill="black"></path>
<path d="M13.1123 19.0586C13.1344 19.0807 13.1675 19.1028 13.2006 19.1249C13.1675 19.1028 13.1454 19.0807 13.1123 19.0586Z" fill="black"></path>
<path d="M19.1501 13.5797L19.4371 13.4141L19.1501 13.5797Z" fill="black"></path>
<path d="M19.5254 12.5977C19.5364 12.6087 19.5475 12.6197 19.5585 12.6308C19.5475 12.6197 19.5364 12.6087 19.5254 12.5977Z" fill="black"></path>
<path d="M13.4438 19.1946C13.4549 19.1946 13.4659 19.1946 13.477 19.1946C13.5101 19.1946 13.5432 19.1946 13.5763 19.1836C13.5321 19.1946 13.488 19.2057 13.4438 19.1946Z" fill="black"></path>
<path d="M13.3553 19.1802C13.3112 19.1692 13.256 19.1471 13.2229 19.125C13.256 19.1581 13.3002 19.1692 13.3553 19.1802Z" fill="black"></path>
<path d="M13.6753 2.2378C14.0616 3.12145 14.3817 4.13765 14.6024 5.24222C14.6355 5.38581 14.7569 5.49627 14.9115 5.49627H18.6311C18.8629 5.49627 19.0174 5.24222 18.9181 5.03235C17.715 2.65753 15.6068 0.834998 13.0351 0.0176192C12.7371 -0.0817917 12.4942 0.260624 12.6819 0.514674C13.0461 0.989637 13.3883 1.56401 13.6753 2.2378Z" fill="black"></path>
<path d="M6.32413 16.8738C5.9047 15.9128 5.57358 14.7972 5.34179 13.5932C5.30868 13.4386 5.18726 13.3281 5.03273 13.3281H1.23582C1.00403 13.3281 0.849509 13.5711 0.948846 13.781C2.11882 16.2994 4.30425 18.2434 6.97533 19.094C7.27335 19.1823 7.50515 18.8399 7.31751 18.5969C6.95327 18.1219 6.62214 17.5476 6.32413 16.8738Z" fill="black"></path>
<path d="M4.97792 9.54967C4.97792 8.69916 5.02208 7.87073 5.11038 7.0644C5.13246 6.87662 4.97793 6.71094 4.79029 6.71094H0.651217C0.507729 6.71094 0.386311 6.81035 0.342161 6.9429C0.12141 7.77132 0 8.64393 0 9.54967C0 10.345 0.0883029 11.1182 0.264903 11.8693C0.298016 12.0129 0.430458 12.1123 0.573946 12.1123H4.75717C4.94481 12.1123 5.0883 11.9466 5.07726 11.7588C5.01104 11.0408 4.97792 10.3008 4.97792 9.54967Z" fill="black"></path>
<path d="M11.413 17.9666L9.956 13.5373C9.91185 13.4048 9.79044 13.3164 9.65799 13.3164H6.90965C6.71097 13.3164 6.55645 13.5042 6.6006 13.703C6.81032 14.6861 7.08625 15.5918 7.42842 16.3761C8.14586 18.0108 9.08404 18.9386 10.0002 18.9386C10.4527 18.9386 10.9052 18.7067 11.3357 18.287C11.424 18.2096 11.4571 18.0881 11.413 17.9666Z" fill="black"></path>
<path d="M15.022 9.54967C15.022 9.54967 15.022 9.56072 15.022 9.54967C15.022 9.69327 15.1103 9.81477 15.2428 9.85895L19.7129 11.328C19.7571 11.3391 19.7902 11.3501 19.8344 11.3722C19.9447 10.7757 19.9999 10.1682 19.9999 9.54967C19.9999 8.64393 19.8785 7.77132 19.6578 6.9429C19.6246 6.81035 19.4922 6.71094 19.3487 6.71094H15.2096C15.022 6.71094 14.8675 6.87662 14.8896 7.0644C14.9779 7.87073 15.022 8.69916 15.022 9.54967Z" fill="black"></path>
<path d="M8.98469 10.5659C8.81912 10.0688 8.90742 9.51653 9.21647 9.08575C9.52552 8.65497 10.0222 8.40092 10.541 8.40092C10.7176 8.40092 10.8942 8.43406 11.0597 8.47824L13.3887 9.24039C13.5984 9.30667 13.8081 9.15203 13.8081 8.93111C13.786 8.26837 13.7419 7.61668 13.6646 6.98708C13.6425 6.83244 13.5101 6.71094 13.3445 6.71094H6.65577C6.49021 6.71094 6.35776 6.83244 6.33568 6.98708C6.23634 7.8155 6.18115 8.66602 6.18115 9.54967C6.18115 10.3229 6.2253 11.085 6.30256 11.8251C6.32464 11.9908 6.45709 12.1123 6.62265 12.1123H9.05091C9.27166 12.1123 9.41514 11.9024 9.34892 11.6925L8.98469 10.5659Z" fill="black"></path>
<path d="M12.5718 2.72275C11.8543 1.08799 10.9161 0.160156 10 0.160156C9.08389 0.160156 8.15674 1.09904 7.42827 2.72275C7.06403 3.54013 6.77704 4.47901 6.57837 5.49521H13.4216C13.2119 4.47901 12.925 3.54013 12.5718 2.72275Z" fill="black"></path>
<path d="M6.32472 2.23831C6.62273 1.56453 6.95386 0.990153 7.3181 0.51519C7.50573 0.272185 7.2629 -0.0702301 6.96489 0.0181351C4.40418 0.835514 2.28498 2.66909 1.08189 5.03286C0.971517 5.24273 1.13708 5.49678 1.36887 5.49678H5.08851C5.24303 5.49678 5.36445 5.38632 5.39756 5.24273C5.61831 4.13817 5.92737 3.12196 6.32472 2.23831Z" fill="black"></path>
<path d="M10.6844 9.63928C10.6402 9.62823 10.596 9.61719 10.5519 9.61719C10.276 9.61719 10.0552 9.89333 10.1435 10.1805L12.9802 18.8403C13.0133 18.9287 13.0574 18.995 13.1126 19.0502C13.1347 19.0723 13.1678 19.0944 13.2009 19.1165C13.2009 19.1165 13.2119 19.1165 13.2119 19.1275C13.2561 19.1496 13.3002 19.1717 13.3444 19.1827C13.3554 19.1827 13.3554 19.1827 13.3665 19.1827C13.3775 19.1827 13.3885 19.1827 13.4106 19.1938C13.4217 19.1938 13.4327 19.1938 13.4437 19.1938C13.4879 19.1938 13.532 19.1938 13.5762 19.1827H13.5872C13.5983 19.1827 13.6093 19.1717 13.6203 19.1717C13.6314 19.1717 13.6424 19.1717 13.6424 19.1606C13.6534 19.1606 13.6645 19.1496 13.6755 19.1496C13.6866 19.1496 13.6976 19.1385 13.7086 19.1385C13.7197 19.1385 13.7307 19.1275 13.7307 19.1275C13.7417 19.1165 13.7528 19.1165 13.7638 19.1054C13.7749 19.1054 13.7749 19.0944 13.7859 19.0944C13.7969 19.0833 13.808 19.0833 13.819 19.0723C13.83 19.0612 13.8301 19.0612 13.8411 19.0502C13.8521 19.0391 13.8632 19.0281 13.8742 19.017C13.8742 19.006 13.8852 19.006 13.8852 18.995C13.8963 18.9729 13.9073 18.9618 13.9294 18.9397L15.3091 16.6091L18.0133 19.3153C18.0905 19.3926 18.1788 19.4368 18.2782 19.4589C18.3113 19.4699 18.3444 19.4699 18.3775 19.4699C18.4768 19.4699 18.5762 19.4368 18.6645 19.3816C18.6976 19.3595 18.7197 19.3374 18.7418 19.3153L19.2715 18.7851L19.8345 18.2218C20.0331 18.0229 20.0331 17.6916 19.8345 17.4927L17.1303 14.7866L19.1722 13.5826L19.4592 13.4169C19.4813 13.4058 19.5033 13.3948 19.5254 13.3727C19.5365 13.3727 19.5364 13.3617 19.5475 13.3617C19.5585 13.3506 19.5696 13.3396 19.5806 13.3285C19.5916 13.3175 19.5916 13.3175 19.6027 13.3064C19.6137 13.2954 19.6248 13.2843 19.6358 13.2733C19.6358 13.2623 19.6468 13.2623 19.6468 13.2512C19.6579 13.2402 19.6579 13.2181 19.6689 13.207C19.6689 13.196 19.6799 13.196 19.6799 13.1849C19.691 13.1628 19.702 13.1408 19.702 13.1297C19.702 13.1187 19.702 13.1187 19.702 13.1076C19.702 13.0966 19.713 13.0745 19.713 13.0634C19.713 13.0524 19.713 13.0413 19.713 13.0303C19.713 13.0193 19.713 13.0082 19.713 12.9972C19.713 12.9861 19.713 12.9751 19.713 12.964C19.713 12.953 19.713 12.9419 19.713 12.9309C19.713 12.9198 19.713 12.9088 19.713 12.8977C19.713 12.8867 19.713 12.8757 19.713 12.8646C19.713 12.8425 19.702 12.8204 19.691 12.7873C19.691 12.7762 19.691 12.7762 19.691 12.7652C19.691 12.7542 19.6799 12.7431 19.6799 12.7321C19.6799 12.721 19.6689 12.721 19.6689 12.71C19.6579 12.6989 19.6579 12.6879 19.6468 12.6768C19.6468 12.6658 19.6358 12.6658 19.6358 12.6547C19.6248 12.6437 19.6247 12.6327 19.6137 12.6216C19.6137 12.6106 19.6027 12.6106 19.6027 12.6106C19.5916 12.5995 19.5806 12.5885 19.5696 12.5774C19.5144 12.5332 19.4592 12.4891 19.3819 12.467L10.6844 9.63928Z" fill="black"></path>
<path d="M19.6802 13.0742C19.6802 13.0853 19.6692 13.1074 19.6692 13.1184C19.6692 13.0963 19.6802 13.0853 19.6802 13.0742Z" fill="black"></path>
<path d="M19.5916 12.6758C19.5916 12.6868 19.6026 12.6868 19.6026 12.6979C19.6026 12.6868 19.6026 12.6868 19.5916 12.6758Z" fill="black"></path>
<path d="M19.6802 12.9414C19.6802 12.9525 19.6802 12.9635 19.6802 12.9745C19.6912 12.9635 19.6912 12.9525 19.6802 12.9414Z" fill="black"></path>
<path d="M19.5586 12.6328L19.5697 12.644L19.5586 12.6328Z" fill="black"></path>
<path d="M19.6245 12.7305C19.6245 12.7415 19.6355 12.7415 19.6355 12.7526C19.6355 12.7415 19.6356 12.7415 19.6245 12.7305Z" fill="black"></path>
<path d="M19.5917 13.2734C19.5807 13.2845 19.5696 13.2955 19.5586 13.3066C19.5807 13.2955 19.5807 13.2845 19.5917 13.2734Z" fill="black"></path>
<path d="M13.3666 19.1919C13.3555 19.1919 13.3555 19.1919 13.3445 19.1919C13.3555 19.1808 13.3666 19.1808 13.3666 19.1919Z" fill="black"></path>
<path d="M13.6419 19.1719C13.6309 19.1719 13.6199 19.1829 13.6199 19.1829C13.6309 19.1719 13.6419 19.1719 13.6419 19.1719Z" fill="black"></path>
<path d="M13.7086 19.1367C13.6976 19.1367 13.6866 19.1478 13.6755 19.1478C13.6866 19.1478 13.6976 19.1478 13.7086 19.1367Z" fill="black"></path>
<path d="M13.2123 19.1283C13.2123 19.1283 13.2012 19.1283 13.2012 19.1172C13.2123 19.1283 13.2123 19.1283 13.2123 19.1283Z" fill="black"></path>
<path d="M19.5475 13.3281C19.5365 13.3392 19.5254 13.3502 19.5144 13.3613C19.5254 13.3502 19.5365 13.3392 19.5475 13.3281Z" fill="black"></path>
<path d="M19.4925 13.3711C19.4704 13.3821 19.4483 13.4042 19.4263 13.4153C19.4594 13.4042 19.4815 13.3932 19.4925 13.3711Z" fill="black"></path>
<path d="M19.6578 13.1289C19.6468 13.151 19.6468 13.1731 19.6357 13.1841C19.6468 13.1731 19.6578 13.151 19.6578 13.1289Z" fill="black"></path>
<path d="M13.7638 19.1055C13.7528 19.1165 13.7418 19.1165 13.7307 19.1276C13.7418 19.1276 13.7528 19.1165 13.7638 19.1055Z" fill="black"></path>
<path d="M19.6356 13.207C19.6246 13.2181 19.6246 13.2402 19.6135 13.2512C19.6135 13.2402 19.6246 13.2291 19.6356 13.207Z" fill="black"></path>
<path d="M18.3444 19.4681C18.3113 19.4681 18.2782 19.4681 18.2451 19.457C18.2782 19.457 18.3113 19.4681 18.3444 19.4681Z" fill="black"></path>
<path d="M13.9074 18.9492C13.8964 18.9713 13.8854 18.9934 13.8633 19.0044C13.8854 18.9824 13.8964 18.9603 13.9074 18.9492Z" fill="black"></path>
<path d="M13.8083 19.0703C13.7972 19.0814 13.7862 19.0924 13.7751 19.0924C13.7862 19.0814 13.7972 19.0814 13.8083 19.0703Z" fill="black"></path>
<path d="M13.8629 19.0156C13.8519 19.0267 13.8409 19.0377 13.8298 19.0488C13.8409 19.0377 13.8519 19.0267 13.8629 19.0156Z" fill="black"></path>
</svg>
