<svg width="20" height="20" viewBox="0 0 20 20" fill="none" xmlns="http://www.w3.org/2000/svg">
<path d="M19.9529 19.034L17.6266 13.7341C17.3607 13.1184 16.5521 12.9644 16.0757 13.4373L13.5943 15.9002C13.118 16.373 13.2731 17.1757 13.8934 17.4396L19.2329 19.7487C19.687 19.9576 20.1523 19.4958 19.9529 19.034Z" fill="black"></path>
<path d="M6.03919 15.3075L2.61619 11.8659C2.3171 11.5691 1.8186 11.778 1.8186 12.1958V15.9563C1.8186 16.0772 1.86291 16.1982 1.95154 16.2861L5.37453 19.6837C5.67362 19.9806 6.17212 19.7717 6.17212 19.3539V15.6374C6.17212 15.5164 6.12781 15.3955 6.03919 15.3075Z" fill="black"></path>
<path d="M15.4551 5.9178C15.5438 6.00576 15.6656 6.04975 15.7875 6.04975H19.5317C19.9527 6.04975 20.1521 5.55494 19.864 5.25807L16.441 1.86046C16.3524 1.77249 16.2306 1.72852 16.1087 1.72852H12.3202C11.8992 1.72852 11.6887 2.2343 11.9878 2.52019L15.4551 5.9178Z" fill="black"></path>
<path d="M1.2978 7.31371C1.10948 7.50063 0.777149 7.43465 0.67745 7.19274C0.289732 6.17016 0.0571019 3.85012 0.0127914 3.1684C0.00171372 3.08043 -0.00936392 2.49768 0.0127914 2.21179C0.0681796 1.64003 0.345121 1.10125 0.72176 0.716411C1.10948 0.342564 1.65228 0.067674 2.22832 0.0126965C2.51634 -0.00929448 3.10345 0.00170101 3.19207 0.0126965C3.87889 0.0566785 6.21627 0.298579 7.24649 0.672426C7.50128 0.771385 7.55666 1.10125 7.36835 1.28817L1.2978 7.31371Z" fill="black"></path>
<path d="M8.12184 6.78711C7.77843 6.78711 7.45718 6.91906 7.21347 7.16096C6.71498 7.65576 6.71498 8.45842 7.21347 8.95322C7.45718 9.19512 7.77843 9.32706 8.12184 9.32706C8.46524 9.32706 8.7865 9.19512 9.0302 8.95322C9.27391 8.71131 9.40684 8.39245 9.40684 8.05159C9.40684 7.71073 9.27391 7.39187 9.0302 7.14997C8.7865 6.91906 8.46524 6.78711 8.12184 6.78711Z" fill="black"></path>
<path d="M15.5327 10.9319L14.8238 10.2172L15.145 9.89838C15.854 9.19467 15.854 8.04013 15.145 7.33642L13.9043 6.10493L10.9355 3.15814C10.57 2.79528 9.68374 2.14655 9.18525 1.79469C8.99693 1.66275 8.73107 1.68474 8.5649 1.84967L1.95155 8.41399C1.78539 8.57892 1.76323 8.84281 1.89616 9.02973C2.25065 9.52453 2.90423 10.4152 3.26979 10.767L6.2386 13.7138L7.47929 14.9453C7.83378 15.2972 8.29904 15.4731 8.7643 15.4731C9.22956 15.4731 9.69482 15.2972 10.0493 14.9453L10.3152 14.6814L11.0352 15.3961C11.4119 15.77 12.0211 15.77 12.3978 15.3961L15.5549 12.2624C15.9094 11.9106 15.9094 11.3058 15.5327 10.9319ZM9.89422 9.81041C9.41788 10.2832 8.79753 10.5361 8.13287 10.5361C7.46822 10.5361 6.83679 10.2832 6.37153 9.81041C5.3967 8.8428 5.3967 7.27045 6.37153 6.30284C6.84787 5.83004 7.46822 5.57714 8.13287 5.57714C8.79753 5.57714 9.42896 5.83004 9.89422 6.30284C10.3706 6.77565 10.6253 7.3914 10.6253 8.05113C10.6253 8.72185 10.3595 9.3376 9.89422 9.81041Z" fill="black"></path>
</svg>
