<svg width="20" height="20" viewBox="0 0 20 20" fill="none" xmlns="http://www.w3.org/2000/svg">
<path d="M8.54159 14.8343C9.13598 14.8343 9.6203 14.3476 9.6203 13.7503V9.50291C9.6203 8.90562 9.13598 8.41895 8.54159 8.41895H4.42492C4.24881 8.41895 4.10571 8.56273 4.10571 8.7397V14.5135C4.10571 14.6905 4.24881 14.8343 4.42492 14.8343H8.54159Z" fill="black"></path>
<path d="M15.7183 6.11816H4.42492C4.24881 6.11816 4.10571 6.26196 4.10571 6.43893V6.89243C4.10571 7.0694 4.24881 7.2132 4.42492 7.2132H8.54159C9.80742 7.2132 10.8311 8.24186 10.8311 9.51387V13.7613C10.8311 15.0333 9.80742 16.062 8.54159 16.062H4.42492C4.24881 16.062 4.10571 16.2057 4.10571 16.3827V16.803C4.10571 16.98 4.24881 17.1238 4.42492 17.1238H15.7073C15.8834 17.1238 16.0265 16.98 16.0265 16.803V6.44999C16.0375 6.2509 15.8944 6.11816 15.7183 6.11816Z" fill="black"></path>
<path d="M14.5514 19.9996H5.58053C5.40442 19.9996 5.2283 19.9111 5.12923 19.7673L4.4578 18.8161C4.3037 18.6059 4.4578 18.3184 4.71096 18.3184H15.4209C15.6741 18.3184 15.8282 18.617 15.6741 18.8272L14.9916 19.7784C14.8926 19.9222 14.7275 19.9996 14.5514 19.9996Z" fill="black"></path>
<path d="M15.3333 3.79572C15.2562 3.67404 15.3002 3.51919 15.4323 3.46389C15.6525 3.35328 15.7956 3.121 15.7735 2.85554C15.7405 2.53477 15.4653 2.30249 15.1461 2.30249H14.3206C14.1885 2.30249 14.0784 2.19188 14.0784 2.05915V1.73838C14.0784 0.831385 13.385 0.0460501 12.4824 0.0018063C11.5138 -0.0424375 10.7213 0.731834 10.7213 1.69414V2.05915C10.7213 2.19188 10.6112 2.30249 10.4791 2.30249H5.00854C4.68934 2.30249 4.41416 2.53477 4.38113 2.85554C4.35912 3.121 4.50222 3.35328 4.72236 3.46389C4.84344 3.53025 4.88746 3.6851 4.82142 3.80677L4.46919 4.38195C4.31509 4.59211 4.4692 4.89075 4.72236 4.89075H15.4323C15.6855 4.89075 15.8396 4.60317 15.6855 4.39301L15.3333 3.79572ZM11.921 1.69414C11.921 1.41761 12.1632 1.19639 12.4384 1.21851C12.6805 1.24063 12.8677 1.46185 12.8677 1.70519V2.04808C12.8677 2.18081 12.7576 2.29143 12.6255 2.29143H12.1632C12.0311 2.29143 11.921 2.18081 11.921 2.04808V1.69414Z" fill="black"></path>
<path d="M18.8333 4.92402C19.4776 4.92402 20 4.39909 20 3.75156C20 3.10403 19.4776 2.5791 18.8333 2.5791C18.1889 2.5791 17.6665 3.10403 17.6665 3.75156C17.6665 4.39909 18.1889 4.92402 18.8333 4.92402Z" fill="black"></path>
<path d="M17.3032 1.67222C17.7349 1.67222 18.0847 1.32061 18.0847 0.886887C18.0847 0.453163 17.7349 0.101562 17.3032 0.101562C16.8716 0.101562 16.5217 0.453163 16.5217 0.886887C16.5217 1.32061 16.8716 1.67222 17.3032 1.67222Z" fill="black"></path>
<path d="M2.25672 13.3307C2.57891 13.3307 2.8401 13.0682 2.8401 12.7444C2.8401 12.4207 2.57891 12.1582 2.25672 12.1582C1.93453 12.1582 1.67334 12.4207 1.67334 12.7444C1.67334 13.0682 1.93453 13.3307 2.25672 13.3307Z" fill="black"></path>
<path d="M0.957624 16.0623C1.4865 16.0623 1.91525 15.6315 1.91525 15.1C1.91525 14.5685 1.4865 14.1377 0.957624 14.1377C0.428743 14.1377 0 14.5685 0 15.1C0 15.6315 0.428743 16.0623 0.957624 16.0623Z" fill="black"></path>
</svg>
