<svg width="20" height="20" viewBox="0 0 20 20" fill="none" xmlns="http://www.w3.org/2000/svg">
<path d="M3.5034 10.0324H16.5078C16.6852 10.0324 16.8293 9.88955 16.8293 9.71374V3.46135C16.8293 3.28554 16.6852 3.1427 16.5078 3.1427H3.5034C3.32601 3.1427 3.18188 3.28554 3.18188 3.46135V9.71374C3.18188 9.88955 3.32601 10.0324 3.5034 10.0324Z" fill="black"></path>
<path d="M18.5366 0H1.46341C0.654097 0 0 0.648321 0 1.45047V18.3725C0 19.1747 0.654097 19.823 1.46341 19.823H18.5366C19.3459 19.823 20 19.1747 20 18.3725V1.45047C20 0.648321 19.3459 0 18.5366 0ZM7.61641 15.9771H6.68514C6.50776 15.9771 6.36363 16.1199 6.36363 16.2957V17.2188C6.36363 17.3946 6.21952 17.5374 6.04213 17.5374H5.46563C5.28824 17.5374 5.14412 17.3946 5.14412 17.2188V16.2957C5.14412 16.1199 5 15.9771 4.82262 15.9771H3.89135C3.71397 15.9771 3.56984 15.8342 3.56984 15.6584V15.087C3.56984 14.9112 3.71397 14.7684 3.89135 14.7684H4.82262C5 14.7684 5.14412 14.6255 5.14412 14.4497V13.5267C5.14412 13.3509 5.28824 13.208 5.46563 13.208H6.04213C6.21952 13.208 6.36363 13.3509 6.36363 13.5267V14.4497C6.36363 14.6255 6.50776 14.7684 6.68514 14.7684H7.61641C7.79379 14.7684 7.93792 14.9112 7.93792 15.087V15.6584C7.92683 15.8342 7.7827 15.9771 7.61641 15.9771ZM12.6053 17.5264C12.0732 17.5264 11.6519 17.0979 11.6519 16.5814C11.6519 16.054 12.0843 15.6364 12.6053 15.6364C13.1375 15.6364 13.5588 16.065 13.5588 16.5814C13.5588 17.1089 13.1264 17.5264 12.6053 17.5264ZM15.3437 15.109C14.8115 15.109 14.3902 14.6805 14.3902 14.164C14.3902 13.6475 14.8226 13.219 15.3437 13.219C15.8758 13.219 16.2971 13.6475 16.2971 14.164C16.2971 14.6805 15.8758 15.109 15.3437 15.109ZM18.0377 10.5378C18.0377 10.9224 17.7162 11.2411 17.3282 11.2411H2.67184C2.28381 11.2411 1.9623 10.9224 1.9623 10.5378V2.64821C1.9623 2.26361 2.28381 1.94495 2.67184 1.94495H17.3282C17.7162 1.94495 18.0377 2.26361 18.0377 2.64821V10.5378Z" fill="black"></path>
</svg>
