<svg width="20" height="20" viewBox="0 0 20 20" fill="none" xmlns="http://www.w3.org/2000/svg">
<path d="M8.67341 8.93389L7.84259 12.8016C7.75397 13.2192 7.20009 13.3071 6.97854 12.9335L4.9735 9.50526C4.88488 9.35143 4.70764 9.26353 4.51932 9.27452L0.553555 9.68106C0.132608 9.72502 -0.122177 9.23056 0.154762 8.91191L2.82446 5.96716C2.94631 5.8353 2.97954 5.63752 2.902 5.4727L1.28468 1.85767C1.10743 1.47309 1.50622 1.07753 1.90502 1.24235L5.54954 2.84658C5.7157 2.9235 5.9151 2.89054 6.04803 2.76967L9.01681 0.121574C9.33806 -0.164112 9.83655 0.088621 9.79224 0.51715L9.38237 4.45082C9.36022 4.62662 9.44884 4.80243 9.615 4.90132L13.0712 6.89014C13.4368 7.09891 13.3481 7.6483 12.9383 7.74719L9.03897 8.57129C8.85065 8.61524 8.70664 8.75809 8.67341 8.93389Z" fill="black"></path>
<path d="M19.5852 17.8123C17.9789 16.2191 14.5117 12.7689 11.2105 9.49449C11.133 9.41758 11.0222 9.38461 10.9225 9.40659L9.96986 9.60437C9.84801 9.62635 9.74831 9.72523 9.72615 9.8461L9.52676 10.7911C9.5046 10.901 9.53783 10.9998 9.61538 11.0768C12.4069 13.8457 15.1985 16.6257 17.99 19.3946C18.4996 19.9001 19.2639 19.955 19.696 19.5155C19.707 19.5045 19.707 19.5045 19.7181 19.4935C20.1391 19.076 20.0837 18.3178 19.5852 17.8123Z" fill="black"></path>
<path d="M19.9839 8.62629C19.995 9.85694 18.9759 10.8788 17.7241 10.8788C16.4945 10.8898 15.4643 9.87892 15.4532 8.65926C15.4421 7.42861 16.4613 6.40674 17.713 6.40674C18.9648 6.40674 19.9729 7.39565 19.9839 8.62629Z" fill="black"></path>
<path d="M6.4581 17.6032C6.44702 16.3726 7.46615 15.3507 8.71792 15.3507C9.94753 15.3397 10.9777 16.3506 10.9888 17.5702C10.9999 18.8009 9.98076 19.8228 8.729 19.8228C7.47723 19.8337 6.46917 18.8448 6.4581 17.6032Z" fill="black"></path>
<path d="M1.00806 15.3509C1.56479 15.3509 2.01611 14.9032 2.01611 14.351C2.01611 13.7987 1.56479 13.3511 1.00806 13.3511C0.451324 13.3511 0 13.7987 0 14.351C0 14.9032 0.451324 15.3509 1.00806 15.3509Z" fill="black"></path>
<path d="M14.4783 2.01153C15.035 2.01153 15.4863 1.56386 15.4863 1.01163C15.4863 0.4594 15.035 0.0117188 14.4783 0.0117188C13.9215 0.0117188 13.4702 0.4594 13.4702 1.01163C13.4702 1.56386 13.9215 2.01153 14.4783 2.01153Z" fill="black"></path>
</svg>
